<mxfile host="Electron" agent="Mozilla/5.0 (Windows NT 10.0; Win64; x64) AppleWebKit/537.36 (KHTML, like Gecko) draw.io/26.1.1 Chrome/132.0.6834.210 Electron/34.3.3 Safari/537.36" version="26.1.1">
  <diagram id="C5RBs43oDa-KdzZeNtuy" name="Page-1">
    <mxGraphModel dx="2868" dy="1772" grid="1" gridSize="10" guides="1" tooltips="1" connect="1" arrows="1" fold="1" page="1" pageScale="1" pageWidth="827" pageHeight="1169" background="none" math="0" shadow="0">
      <root>
        <mxCell id="WIyWlLk6GJQsqaUBKTNV-0" />
        <mxCell id="WIyWlLk6GJQsqaUBKTNV-1" parent="WIyWlLk6GJQsqaUBKTNV-0" />
        <mxCell id="RU7xWXoFZROZT3w_J7ug-0" value="传送门进入视野时，捕获相机相对位置，在出口添加临时相机，展示传送后样貌" style="shape=note;whiteSpace=wrap;html=1;backgroundOutline=1;darkOpacity=0.05;fillStyle=auto;direction=west;gradientDirection=north;shadow=1;size=20;pointerEvents=1;fillColor=#60a917;fontColor=#ffffff;strokeColor=#2D7600;" parent="WIyWlLk6GJQsqaUBKTNV-1" vertex="1">
          <mxGeometry x="150" y="210" width="140" height="160" as="geometry" />
        </mxCell>
        <mxCell id="lXydgKdb8dQbWVLl66ff-0" value="传送体进入范围时，入口渲染到出口，出口渲染到入口" style="shape=note;whiteSpace=wrap;html=1;backgroundOutline=1;darkOpacity=0.05;fillStyle=auto;direction=west;gradientDirection=north;shadow=1;size=20;pointerEvents=1;fillColor=#60a917;fontColor=#ffffff;strokeColor=#2D7600;" vertex="1" parent="WIyWlLk6GJQsqaUBKTNV-1">
          <mxGeometry x="340" y="210" width="140" height="160" as="geometry" />
        </mxCell>
        <mxCell id="lXydgKdb8dQbWVLl66ff-1" value="" style="whiteSpace=wrap;html=1;" vertex="1" parent="WIyWlLk6GJQsqaUBKTNV-1">
          <mxGeometry x="160" y="630" width="120" height="60" as="geometry" />
        </mxCell>
        <mxCell id="lXydgKdb8dQbWVLl66ff-3" value="" style="ellipse;whiteSpace=wrap;html=1;" vertex="1" parent="WIyWlLk6GJQsqaUBKTNV-1">
          <mxGeometry x="180" y="650" width="80" height="80" as="geometry" />
        </mxCell>
        <mxCell id="lXydgKdb8dQbWVLl66ff-4" value="" style="ellipse;whiteSpace=wrap;html=1;" vertex="1" parent="WIyWlLk6GJQsqaUBKTNV-1">
          <mxGeometry x="420" y="780" width="80" height="80" as="geometry" />
        </mxCell>
        <mxCell id="lXydgKdb8dQbWVLl66ff-2" value="" style="whiteSpace=wrap;html=1;" vertex="1" parent="WIyWlLk6GJQsqaUBKTNV-1">
          <mxGeometry x="400" y="760" width="120" height="60" as="geometry" />
        </mxCell>
        <mxCell id="lXydgKdb8dQbWVLl66ff-5" value="" style="triangle;whiteSpace=wrap;html=1;" vertex="1" parent="WIyWlLk6GJQsqaUBKTNV-1">
          <mxGeometry x="90" y="620" width="60" height="80" as="geometry" />
        </mxCell>
        <mxCell id="lXydgKdb8dQbWVLl66ff-6" value="" style="triangle;whiteSpace=wrap;html=1;" vertex="1" parent="WIyWlLk6GJQsqaUBKTNV-1">
          <mxGeometry x="330" y="750" width="60" height="80" as="geometry" />
        </mxCell>
        <mxCell id="lXydgKdb8dQbWVLl66ff-7" value="" style="triangle;whiteSpace=wrap;html=1;rotation=-180;" vertex="1" parent="WIyWlLk6GJQsqaUBKTNV-1">
          <mxGeometry x="530" y="750" width="60" height="80" as="geometry" />
        </mxCell>
        <mxCell id="lXydgKdb8dQbWVLl66ff-8" value="" style="triangle;whiteSpace=wrap;html=1;rotation=-180;" vertex="1" parent="WIyWlLk6GJQsqaUBKTNV-1">
          <mxGeometry x="290" y="620" width="60" height="80" as="geometry" />
        </mxCell>
        <mxCell id="lXydgKdb8dQbWVLl66ff-10" value="自己的相机同步到视野相机" style="text;strokeColor=none;align=center;fillColor=none;html=1;verticalAlign=middle;whiteSpace=wrap;rounded=0;fontSize=16;" vertex="1" parent="WIyWlLk6GJQsqaUBKTNV-1">
          <mxGeometry x="70" y="540" width="60" height="30" as="geometry" />
        </mxCell>
        <mxCell id="lXydgKdb8dQbWVLl66ff-11" value="克隆的相机同步到视野相机相对位置" style="text;strokeColor=none;align=center;fillColor=none;html=1;verticalAlign=middle;whiteSpace=wrap;rounded=0;fontSize=16;" vertex="1" parent="WIyWlLk6GJQsqaUBKTNV-1">
          <mxGeometry x="320" y="870" width="60" height="30" as="geometry" />
        </mxCell>
        <mxCell id="lXydgKdb8dQbWVLl66ff-12" value="" style="edgeStyle=none;orthogonalLoop=1;jettySize=auto;html=1;rounded=0;fontSize=12;startSize=8;endSize=8;curved=1;entryX=1;entryY=1;entryDx=0;entryDy=0;" edge="1" parent="WIyWlLk6GJQsqaUBKTNV-1" source="lXydgKdb8dQbWVLl66ff-6" target="lXydgKdb8dQbWVLl66ff-1">
          <mxGeometry width="120" relative="1" as="geometry">
            <mxPoint x="190" y="780" as="sourcePoint" />
            <mxPoint x="310" y="780" as="targetPoint" />
            <Array as="points" />
          </mxGeometry>
        </mxCell>
        <mxCell id="lXydgKdb8dQbWVLl66ff-13" value="显示克隆画面（裁剪到传送门）" style="text;strokeColor=none;align=center;fillColor=none;html=1;verticalAlign=middle;whiteSpace=wrap;rounded=0;fontSize=16;" vertex="1" parent="WIyWlLk6GJQsqaUBKTNV-1">
          <mxGeometry x="270" y="730" width="60" height="30" as="geometry" />
        </mxCell>
        <mxCell id="lXydgKdb8dQbWVLl66ff-14" value="当进入相机渲染视野时，把渲染相机当作匹配相机" style="text;strokeColor=none;align=center;fillColor=none;html=1;verticalAlign=middle;whiteSpace=wrap;rounded=0;fontSize=16;" vertex="1" parent="WIyWlLk6GJQsqaUBKTNV-1">
          <mxGeometry x="10" y="470" width="230" height="30" as="geometry" />
        </mxCell>
        <mxCell id="lXydgKdb8dQbWVLl66ff-15" value="不可进入或者默认情况下渲染背景，就好像传送门不存在" style="text;strokeColor=none;align=center;fillColor=none;html=1;verticalAlign=middle;whiteSpace=wrap;rounded=0;fontSize=16;" vertex="1" parent="WIyWlLk6GJQsqaUBKTNV-1">
          <mxGeometry x="450" y="480" width="280" height="30" as="geometry" />
        </mxCell>
        <mxCell id="lXydgKdb8dQbWVLl66ff-16" value="传送门一定可以用作出口，是否可用作入口设置开关" style="text;strokeColor=none;align=center;fillColor=none;html=1;verticalAlign=middle;whiteSpace=wrap;rounded=0;fontSize=16;" vertex="1" parent="WIyWlLk6GJQsqaUBKTNV-1">
          <mxGeometry x="475" y="530" width="230" height="30" as="geometry" />
        </mxCell>
        <mxCell id="lXydgKdb8dQbWVLl66ff-20" value="out" style="ellipse;whiteSpace=wrap;html=1;" vertex="1" parent="WIyWlLk6GJQsqaUBKTNV-1">
          <mxGeometry x="560" y="1420" width="80" height="80" as="geometry" />
        </mxCell>
        <mxCell id="lXydgKdb8dQbWVLl66ff-30" value="" style="endArrow=none;html=1;rounded=0;fontSize=12;startSize=8;endSize=8;curved=1;exitX=1;exitY=0.5;exitDx=0;exitDy=0;" edge="1" parent="WIyWlLk6GJQsqaUBKTNV-1" source="lXydgKdb8dQbWVLl66ff-20">
          <mxGeometry width="50" height="50" relative="1" as="geometry">
            <mxPoint x="680" y="1500" as="sourcePoint" />
            <mxPoint x="720" y="1200" as="targetPoint" />
          </mxGeometry>
        </mxCell>
        <mxCell id="lXydgKdb8dQbWVLl66ff-31" value="" style="endArrow=none;html=1;rounded=0;fontSize=12;startSize=8;endSize=8;curved=1;exitX=0;exitY=0.5;exitDx=0;exitDy=0;" edge="1" parent="WIyWlLk6GJQsqaUBKTNV-1" source="lXydgKdb8dQbWVLl66ff-20">
          <mxGeometry width="50" height="50" relative="1" as="geometry">
            <mxPoint x="520" y="1500" as="sourcePoint" />
            <mxPoint x="480" y="1200" as="targetPoint" />
          </mxGeometry>
        </mxCell>
        <mxCell id="lXydgKdb8dQbWVLl66ff-32" value="" style="endArrow=classic;html=1;rounded=0;fontSize=12;startSize=8;endSize=8;curved=1;exitX=0.5;exitY=0;exitDx=0;exitDy=0;exitPerimeter=0;entryX=0.5;entryY=1;entryDx=0;entryDy=0;" edge="1" parent="WIyWlLk6GJQsqaUBKTNV-1">
          <mxGeometry width="50" height="50" relative="1" as="geometry">
            <mxPoint x="600" y="1500" as="sourcePoint" />
            <mxPoint x="600" y="1260" as="targetPoint" />
          </mxGeometry>
        </mxCell>
        <mxCell id="lXydgKdb8dQbWVLl66ff-33" value="in" style="ellipse;whiteSpace=wrap;html=1;" vertex="1" parent="WIyWlLk6GJQsqaUBKTNV-1">
          <mxGeometry x="200" y="1420" width="80" height="80" as="geometry" />
        </mxCell>
        <mxCell id="lXydgKdb8dQbWVLl66ff-34" value="Actor" style="shape=umlActor;verticalLabelPosition=bottom;verticalAlign=top;html=1;outlineConnect=0;" vertex="1" parent="WIyWlLk6GJQsqaUBKTNV-1">
          <mxGeometry x="225" y="1540" width="30" height="60" as="geometry" />
        </mxCell>
        <mxCell id="lXydgKdb8dQbWVLl66ff-35" value="" style="endArrow=none;html=1;rounded=0;fontSize=12;startSize=8;endSize=8;curved=1;exitX=0.5;exitY=0;exitDx=0;exitDy=0;exitPerimeter=0;entryX=0.5;entryY=1;entryDx=0;entryDy=0;strokeColor=default;startFill=0;" edge="1" source="lXydgKdb8dQbWVLl66ff-34" target="lXydgKdb8dQbWVLl66ff-33" parent="WIyWlLk6GJQsqaUBKTNV-1">
          <mxGeometry width="50" height="50" relative="1" as="geometry">
            <mxPoint x="480" y="1690" as="sourcePoint" />
            <mxPoint x="530" y="1640" as="targetPoint" />
          </mxGeometry>
        </mxCell>
        <mxCell id="lXydgKdb8dQbWVLl66ff-36" value="" style="endArrow=none;html=1;rounded=0;fontSize=12;startSize=8;endSize=8;curved=1;exitX=1;exitY=0.5;exitDx=0;exitDy=0;" edge="1" parent="WIyWlLk6GJQsqaUBKTNV-1" source="lXydgKdb8dQbWVLl66ff-33">
          <mxGeometry width="50" height="50" relative="1" as="geometry">
            <mxPoint x="280" y="1540" as="sourcePoint" />
            <mxPoint x="360" y="1200" as="targetPoint" />
          </mxGeometry>
        </mxCell>
        <mxCell id="lXydgKdb8dQbWVLl66ff-37" value="" style="endArrow=none;html=1;rounded=0;fontSize=12;startSize=8;endSize=8;curved=1;exitX=0;exitY=0.5;exitDx=0;exitDy=0;" edge="1" parent="WIyWlLk6GJQsqaUBKTNV-1" source="lXydgKdb8dQbWVLl66ff-33">
          <mxGeometry width="50" height="50" relative="1" as="geometry">
            <mxPoint x="200" y="1540" as="sourcePoint" />
            <mxPoint x="120" y="1200" as="targetPoint" />
          </mxGeometry>
        </mxCell>
        <mxCell id="lXydgKdb8dQbWVLl66ff-38" value="Actor" style="shape=umlActor;verticalLabelPosition=bottom;verticalAlign=top;html=1;outlineConnect=0;" vertex="1" parent="WIyWlLk6GJQsqaUBKTNV-1">
          <mxGeometry x="585" y="1200" width="30" height="60" as="geometry" />
        </mxCell>
        <mxCell id="lXydgKdb8dQbWVLl66ff-39" value="" style="endArrow=open;html=1;rounded=0;fontSize=12;startSize=8;endSize=8;curved=1;exitX=0.5;exitY=0;exitDx=0;exitDy=0;exitPerimeter=0;entryX=0.5;entryY=1;entryDx=0;entryDy=0;dashed=1;endFill=0;" edge="1" parent="WIyWlLk6GJQsqaUBKTNV-1">
          <mxGeometry width="50" height="50" relative="1" as="geometry">
            <mxPoint x="240" y="1500" as="sourcePoint" />
            <mxPoint x="240" y="1260" as="targetPoint" />
          </mxGeometry>
        </mxCell>
        <mxCell id="lXydgKdb8dQbWVLl66ff-40" value="Actor" style="shape=umlActor;verticalLabelPosition=bottom;verticalAlign=top;html=1;outlineConnect=0;dashed=1;" vertex="1" parent="WIyWlLk6GJQsqaUBKTNV-1">
          <mxGeometry x="225" y="1200" width="30" height="60" as="geometry" />
        </mxCell>
        <mxCell id="lXydgKdb8dQbWVLl66ff-41" value="Actor" style="shape=umlActor;verticalLabelPosition=bottom;verticalAlign=top;html=1;outlineConnect=0;dashed=1;" vertex="1" parent="WIyWlLk6GJQsqaUBKTNV-1">
          <mxGeometry x="585" y="1540" width="30" height="60" as="geometry" />
        </mxCell>
        <mxCell id="lXydgKdb8dQbWVLl66ff-42" value="" style="endArrow=none;html=1;rounded=0;fontSize=12;startSize=8;endSize=8;curved=1;exitX=0.5;exitY=0;exitDx=0;exitDy=0;exitPerimeter=0;entryX=0.5;entryY=1;entryDx=0;entryDy=0;strokeColor=default;startFill=0;dashed=1;" edge="1" source="lXydgKdb8dQbWVLl66ff-41" parent="WIyWlLk6GJQsqaUBKTNV-1">
          <mxGeometry width="50" height="50" relative="1" as="geometry">
            <mxPoint x="840" y="1690" as="sourcePoint" />
            <mxPoint x="600" y="1500" as="targetPoint" />
          </mxGeometry>
        </mxCell>
        <mxCell id="lXydgKdb8dQbWVLl66ff-43" value="out" style="ellipse;whiteSpace=wrap;html=1;" vertex="1" parent="WIyWlLk6GJQsqaUBKTNV-1">
          <mxGeometry x="560" y="1900" width="80" height="80" as="geometry" />
        </mxCell>
        <mxCell id="lXydgKdb8dQbWVLl66ff-44" value="" style="endArrow=none;html=1;rounded=0;fontSize=12;startSize=8;endSize=8;curved=1;exitX=1;exitY=1;exitDx=0;exitDy=0;" edge="1" source="lXydgKdb8dQbWVLl66ff-43" parent="WIyWlLk6GJQsqaUBKTNV-1">
          <mxGeometry width="50" height="50" relative="1" as="geometry">
            <mxPoint x="680" y="1980" as="sourcePoint" />
            <mxPoint x="800" y="1800" as="targetPoint" />
          </mxGeometry>
        </mxCell>
        <mxCell id="lXydgKdb8dQbWVLl66ff-45" value="" style="endArrow=none;html=1;rounded=0;fontSize=12;startSize=8;endSize=8;curved=1;exitX=0;exitY=1;exitDx=0;exitDy=0;" edge="1" source="lXydgKdb8dQbWVLl66ff-43" parent="WIyWlLk6GJQsqaUBKTNV-1">
          <mxGeometry width="50" height="50" relative="1" as="geometry">
            <mxPoint x="520" y="1980" as="sourcePoint" />
            <mxPoint x="400" y="1800" as="targetPoint" />
          </mxGeometry>
        </mxCell>
        <mxCell id="lXydgKdb8dQbWVLl66ff-46" value="" style="endArrow=classic;html=1;rounded=0;fontSize=12;startSize=8;endSize=8;curved=1;exitX=0.5;exitY=0;exitDx=0;exitDy=0;exitPerimeter=0;entryX=0.5;entryY=1;entryDx=0;entryDy=0;" edge="1" parent="WIyWlLk6GJQsqaUBKTNV-1">
          <mxGeometry width="50" height="50" relative="1" as="geometry">
            <mxPoint x="600" y="1980" as="sourcePoint" />
            <mxPoint x="600" y="1740" as="targetPoint" />
          </mxGeometry>
        </mxCell>
        <mxCell id="lXydgKdb8dQbWVLl66ff-47" value="in" style="ellipse;whiteSpace=wrap;html=1;" vertex="1" parent="WIyWlLk6GJQsqaUBKTNV-1">
          <mxGeometry x="200" y="1900" width="80" height="80" as="geometry" />
        </mxCell>
        <mxCell id="lXydgKdb8dQbWVLl66ff-48" value="Actor" style="shape=umlActor;verticalLabelPosition=bottom;verticalAlign=top;html=1;outlineConnect=0;" vertex="1" parent="WIyWlLk6GJQsqaUBKTNV-1">
          <mxGeometry x="225" y="1990" width="30" height="60" as="geometry" />
        </mxCell>
        <mxCell id="lXydgKdb8dQbWVLl66ff-49" value="" style="endArrow=none;html=1;rounded=0;fontSize=12;startSize=8;endSize=8;curved=1;exitX=0.5;exitY=0;exitDx=0;exitDy=0;exitPerimeter=0;entryX=0.5;entryY=1;entryDx=0;entryDy=0;strokeColor=default;startFill=0;" edge="1" source="lXydgKdb8dQbWVLl66ff-48" target="lXydgKdb8dQbWVLl66ff-47" parent="WIyWlLk6GJQsqaUBKTNV-1">
          <mxGeometry width="50" height="50" relative="1" as="geometry">
            <mxPoint x="480" y="2170" as="sourcePoint" />
            <mxPoint x="530" y="2120" as="targetPoint" />
          </mxGeometry>
        </mxCell>
        <mxCell id="lXydgKdb8dQbWVLl66ff-50" value="" style="endArrow=none;html=1;rounded=0;fontSize=12;startSize=8;endSize=8;curved=1;exitX=1;exitY=1;exitDx=0;exitDy=0;" edge="1" source="lXydgKdb8dQbWVLl66ff-47" parent="WIyWlLk6GJQsqaUBKTNV-1">
          <mxGeometry width="50" height="50" relative="1" as="geometry">
            <mxPoint x="280" y="2020" as="sourcePoint" />
            <mxPoint x="440" y="1800" as="targetPoint" />
          </mxGeometry>
        </mxCell>
        <mxCell id="lXydgKdb8dQbWVLl66ff-51" value="" style="endArrow=none;html=1;rounded=0;fontSize=12;startSize=8;endSize=8;curved=1;exitX=0;exitY=1;exitDx=0;exitDy=0;" edge="1" source="lXydgKdb8dQbWVLl66ff-47" parent="WIyWlLk6GJQsqaUBKTNV-1">
          <mxGeometry width="50" height="50" relative="1" as="geometry">
            <mxPoint x="200" y="2020" as="sourcePoint" />
            <mxPoint x="40" y="1800" as="targetPoint" />
          </mxGeometry>
        </mxCell>
        <mxCell id="lXydgKdb8dQbWVLl66ff-52" value="Actor" style="shape=umlActor;verticalLabelPosition=bottom;verticalAlign=top;html=1;outlineConnect=0;" vertex="1" parent="WIyWlLk6GJQsqaUBKTNV-1">
          <mxGeometry x="585" y="1680" width="30" height="60" as="geometry" />
        </mxCell>
        <mxCell id="lXydgKdb8dQbWVLl66ff-53" value="" style="endArrow=open;html=1;rounded=0;fontSize=12;startSize=8;endSize=8;curved=1;exitX=0.5;exitY=0;exitDx=0;exitDy=0;exitPerimeter=0;entryX=0.5;entryY=1;entryDx=0;entryDy=0;dashed=1;endFill=0;" edge="1" parent="WIyWlLk6GJQsqaUBKTNV-1">
          <mxGeometry width="50" height="50" relative="1" as="geometry">
            <mxPoint x="240" y="1980" as="sourcePoint" />
            <mxPoint x="240" y="1740" as="targetPoint" />
          </mxGeometry>
        </mxCell>
        <mxCell id="lXydgKdb8dQbWVLl66ff-54" value="Actor" style="shape=umlActor;verticalLabelPosition=bottom;verticalAlign=top;html=1;outlineConnect=0;dashed=1;" vertex="1" parent="WIyWlLk6GJQsqaUBKTNV-1">
          <mxGeometry x="225" y="1680" width="30" height="60" as="geometry" />
        </mxCell>
        <mxCell id="lXydgKdb8dQbWVLl66ff-55" value="Actor" style="shape=umlActor;verticalLabelPosition=bottom;verticalAlign=top;html=1;outlineConnect=0;dashed=1;" vertex="1" parent="WIyWlLk6GJQsqaUBKTNV-1">
          <mxGeometry x="585" y="1990" width="30" height="60" as="geometry" />
        </mxCell>
        <mxCell id="lXydgKdb8dQbWVLl66ff-56" value="" style="endArrow=none;html=1;rounded=0;fontSize=12;startSize=8;endSize=8;curved=1;exitX=0.5;exitY=0;exitDx=0;exitDy=0;exitPerimeter=0;entryX=0.5;entryY=1;entryDx=0;entryDy=0;strokeColor=default;startFill=0;dashed=1;" edge="1" source="lXydgKdb8dQbWVLl66ff-55" parent="WIyWlLk6GJQsqaUBKTNV-1">
          <mxGeometry width="50" height="50" relative="1" as="geometry">
            <mxPoint x="840" y="2170" as="sourcePoint" />
            <mxPoint x="600" y="1980" as="targetPoint" />
          </mxGeometry>
        </mxCell>
        <mxCell id="lXydgKdb8dQbWVLl66ff-58" value="" style="endArrow=none;html=1;rounded=0;fontSize=12;startSize=8;endSize=8;curved=1;exitX=1;exitY=0.5;exitDx=0;exitDy=0;" edge="1" source="lXydgKdb8dQbWVLl66ff-66" parent="WIyWlLk6GJQsqaUBKTNV-1">
          <mxGeometry width="50" height="50" relative="1" as="geometry">
            <mxPoint x="680" y="2420" as="sourcePoint" />
            <mxPoint x="820" y="2380" as="targetPoint" />
          </mxGeometry>
        </mxCell>
        <mxCell id="lXydgKdb8dQbWVLl66ff-59" value="" style="endArrow=none;html=1;rounded=0;fontSize=12;startSize=8;endSize=8;curved=1;exitX=0;exitY=0.5;exitDx=0;exitDy=0;" edge="1" source="lXydgKdb8dQbWVLl66ff-66" parent="WIyWlLk6GJQsqaUBKTNV-1">
          <mxGeometry width="50" height="50" relative="1" as="geometry">
            <mxPoint x="520" y="2420" as="sourcePoint" />
            <mxPoint x="360" y="2380" as="targetPoint" />
          </mxGeometry>
        </mxCell>
        <mxCell id="lXydgKdb8dQbWVLl66ff-60" value="" style="endArrow=classic;html=1;rounded=0;fontSize=12;startSize=8;endSize=8;curved=1;exitX=0.5;exitY=0;exitDx=0;exitDy=0;exitPerimeter=0;entryX=0.5;entryY=1;entryDx=0;entryDy=0;" edge="1" parent="WIyWlLk6GJQsqaUBKTNV-1">
          <mxGeometry width="50" height="50" relative="1" as="geometry">
            <mxPoint x="600" y="2420" as="sourcePoint" />
            <mxPoint x="600" y="2180" as="targetPoint" />
          </mxGeometry>
        </mxCell>
        <mxCell id="lXydgKdb8dQbWVLl66ff-61" value="" style="endArrow=none;html=1;rounded=0;fontSize=12;startSize=8;endSize=8;curved=1;exitX=0.5;exitY=0;exitDx=0;exitDy=0;exitPerimeter=0;entryX=0.5;entryY=1;entryDx=0;entryDy=0;strokeColor=default;startFill=0;" edge="1" source="lXydgKdb8dQbWVLl66ff-68" target="lXydgKdb8dQbWVLl66ff-67" parent="WIyWlLk6GJQsqaUBKTNV-1">
          <mxGeometry width="50" height="50" relative="1" as="geometry">
            <mxPoint x="480" y="2610" as="sourcePoint" />
            <mxPoint x="530" y="2560" as="targetPoint" />
          </mxGeometry>
        </mxCell>
        <mxCell id="lXydgKdb8dQbWVLl66ff-62" value="" style="endArrow=none;html=1;rounded=0;fontSize=12;startSize=8;endSize=8;curved=1;exitX=1;exitY=0.5;exitDx=0;exitDy=0;" edge="1" source="lXydgKdb8dQbWVLl66ff-67" parent="WIyWlLk6GJQsqaUBKTNV-1">
          <mxGeometry width="50" height="50" relative="1" as="geometry">
            <mxPoint x="280" y="2460" as="sourcePoint" />
            <mxPoint x="480" y="2380" as="targetPoint" />
          </mxGeometry>
        </mxCell>
        <mxCell id="lXydgKdb8dQbWVLl66ff-63" value="" style="endArrow=none;html=1;rounded=0;fontSize=12;startSize=8;endSize=8;curved=1;exitX=0;exitY=0.5;exitDx=0;exitDy=0;" edge="1" source="lXydgKdb8dQbWVLl66ff-67" parent="WIyWlLk6GJQsqaUBKTNV-1">
          <mxGeometry width="50" height="50" relative="1" as="geometry">
            <mxPoint x="200" y="2460" as="sourcePoint" />
            <mxPoint y="2380" as="targetPoint" />
          </mxGeometry>
        </mxCell>
        <mxCell id="lXydgKdb8dQbWVLl66ff-64" value="" style="endArrow=open;html=1;rounded=0;fontSize=12;startSize=8;endSize=8;curved=1;exitX=0.5;exitY=0;exitDx=0;exitDy=0;exitPerimeter=0;entryX=0.5;entryY=1;entryDx=0;entryDy=0;endFill=0;" edge="1" parent="WIyWlLk6GJQsqaUBKTNV-1">
          <mxGeometry width="50" height="50" relative="1" as="geometry">
            <mxPoint x="240" y="2420" as="sourcePoint" />
            <mxPoint x="240" y="2180" as="targetPoint" />
          </mxGeometry>
        </mxCell>
        <mxCell id="lXydgKdb8dQbWVLl66ff-65" value="" style="endArrow=none;html=1;rounded=0;fontSize=12;startSize=8;endSize=8;curved=1;exitX=0.5;exitY=0;exitDx=0;exitDy=0;exitPerimeter=0;entryX=0.5;entryY=1;entryDx=0;entryDy=0;strokeColor=default;startFill=0;dashed=1;" edge="1" source="lXydgKdb8dQbWVLl66ff-71" parent="WIyWlLk6GJQsqaUBKTNV-1">
          <mxGeometry width="50" height="50" relative="1" as="geometry">
            <mxPoint x="840" y="2610" as="sourcePoint" />
            <mxPoint x="600" y="2420" as="targetPoint" />
          </mxGeometry>
        </mxCell>
        <mxCell id="lXydgKdb8dQbWVLl66ff-66" value="out" style="ellipse;whiteSpace=wrap;html=1;" vertex="1" parent="WIyWlLk6GJQsqaUBKTNV-1">
          <mxGeometry x="560" y="2340" width="80" height="80" as="geometry" />
        </mxCell>
        <mxCell id="lXydgKdb8dQbWVLl66ff-67" value="in" style="ellipse;whiteSpace=wrap;html=1;" vertex="1" parent="WIyWlLk6GJQsqaUBKTNV-1">
          <mxGeometry x="200" y="2340" width="80" height="80" as="geometry" />
        </mxCell>
        <mxCell id="lXydgKdb8dQbWVLl66ff-68" value="Actor" style="shape=umlActor;verticalLabelPosition=bottom;verticalAlign=top;html=1;outlineConnect=0;" vertex="1" parent="WIyWlLk6GJQsqaUBKTNV-1">
          <mxGeometry x="225" y="2350" width="30" height="60" as="geometry" />
        </mxCell>
        <mxCell id="lXydgKdb8dQbWVLl66ff-69" value="Actor" style="shape=umlActor;verticalLabelPosition=bottom;verticalAlign=top;html=1;outlineConnect=0;" vertex="1" parent="WIyWlLk6GJQsqaUBKTNV-1">
          <mxGeometry x="585" y="2120" width="30" height="60" as="geometry" />
        </mxCell>
        <mxCell id="lXydgKdb8dQbWVLl66ff-70" value="Actor" style="shape=umlActor;verticalLabelPosition=bottom;verticalAlign=top;html=1;outlineConnect=0;" vertex="1" parent="WIyWlLk6GJQsqaUBKTNV-1">
          <mxGeometry x="225" y="2120" width="30" height="60" as="geometry" />
        </mxCell>
        <mxCell id="lXydgKdb8dQbWVLl66ff-71" value="Actor" style="shape=umlActor;verticalLabelPosition=bottom;verticalAlign=top;html=1;outlineConnect=0;" vertex="1" parent="WIyWlLk6GJQsqaUBKTNV-1">
          <mxGeometry x="585" y="2350" width="30" height="60" as="geometry" />
        </mxCell>
        <mxCell id="lXydgKdb8dQbWVLl66ff-72" value="" style="endArrow=none;html=1;rounded=0;fontSize=12;startSize=8;endSize=8;curved=1;exitX=1;exitY=0.5;exitDx=0;exitDy=0;" edge="1" source="lXydgKdb8dQbWVLl66ff-80" parent="WIyWlLk6GJQsqaUBKTNV-1">
          <mxGeometry width="50" height="50" relative="1" as="geometry">
            <mxPoint x="680" y="2820" as="sourcePoint" />
            <mxPoint x="740" y="3010" as="targetPoint" />
          </mxGeometry>
        </mxCell>
        <mxCell id="lXydgKdb8dQbWVLl66ff-73" value="" style="endArrow=none;html=1;rounded=0;fontSize=12;startSize=8;endSize=8;curved=1;exitX=0;exitY=0.5;exitDx=0;exitDy=0;" edge="1" source="lXydgKdb8dQbWVLl66ff-80" parent="WIyWlLk6GJQsqaUBKTNV-1">
          <mxGeometry width="50" height="50" relative="1" as="geometry">
            <mxPoint x="520" y="2820" as="sourcePoint" />
            <mxPoint x="450" y="3000" as="targetPoint" />
          </mxGeometry>
        </mxCell>
        <mxCell id="lXydgKdb8dQbWVLl66ff-74" value="" style="endArrow=classic;html=1;rounded=0;fontSize=12;startSize=8;endSize=8;curved=1;entryX=0.5;entryY=1;entryDx=0;entryDy=0;" edge="1" parent="WIyWlLk6GJQsqaUBKTNV-1" source="lXydgKdb8dQbWVLl66ff-85">
          <mxGeometry width="50" height="50" relative="1" as="geometry">
            <mxPoint x="600" y="2820" as="sourcePoint" />
            <mxPoint x="600" y="2580" as="targetPoint" />
          </mxGeometry>
        </mxCell>
        <mxCell id="lXydgKdb8dQbWVLl66ff-76" value="" style="endArrow=none;html=1;rounded=0;fontSize=12;startSize=8;endSize=8;curved=1;exitX=1;exitY=0.5;exitDx=0;exitDy=0;" edge="1" source="lXydgKdb8dQbWVLl66ff-81" parent="WIyWlLk6GJQsqaUBKTNV-1">
          <mxGeometry width="50" height="50" relative="1" as="geometry">
            <mxPoint x="280" y="2860" as="sourcePoint" />
            <mxPoint x="350" y="3020" as="targetPoint" />
          </mxGeometry>
        </mxCell>
        <mxCell id="lXydgKdb8dQbWVLl66ff-77" value="" style="endArrow=none;html=1;rounded=0;fontSize=12;startSize=8;endSize=8;curved=1;exitX=0;exitY=0.5;exitDx=0;exitDy=0;" edge="1" source="lXydgKdb8dQbWVLl66ff-81" parent="WIyWlLk6GJQsqaUBKTNV-1">
          <mxGeometry width="50" height="50" relative="1" as="geometry">
            <mxPoint x="200" y="2860" as="sourcePoint" />
            <mxPoint x="90" y="3030" as="targetPoint" />
          </mxGeometry>
        </mxCell>
        <mxCell id="lXydgKdb8dQbWVLl66ff-78" value="" style="endArrow=open;html=1;rounded=0;fontSize=12;startSize=8;endSize=8;curved=1;entryX=0.5;entryY=1;entryDx=0;entryDy=0;endFill=0;" edge="1" parent="WIyWlLk6GJQsqaUBKTNV-1" source="lXydgKdb8dQbWVLl66ff-82">
          <mxGeometry width="50" height="50" relative="1" as="geometry">
            <mxPoint x="240" y="2820" as="sourcePoint" />
            <mxPoint x="240" y="2580" as="targetPoint" />
          </mxGeometry>
        </mxCell>
        <mxCell id="lXydgKdb8dQbWVLl66ff-80" value="out" style="ellipse;whiteSpace=wrap;html=1;" vertex="1" parent="WIyWlLk6GJQsqaUBKTNV-1">
          <mxGeometry x="560" y="2740" width="80" height="80" as="geometry" />
        </mxCell>
        <mxCell id="lXydgKdb8dQbWVLl66ff-81" value="in" style="ellipse;whiteSpace=wrap;html=1;" vertex="1" parent="WIyWlLk6GJQsqaUBKTNV-1">
          <mxGeometry x="200" y="2740" width="80" height="80" as="geometry" />
        </mxCell>
        <mxCell id="lXydgKdb8dQbWVLl66ff-82" value="Actor" style="shape=umlActor;verticalLabelPosition=bottom;verticalAlign=top;html=1;outlineConnect=0;" vertex="1" parent="WIyWlLk6GJQsqaUBKTNV-1">
          <mxGeometry x="225" y="2670" width="30" height="60" as="geometry" />
        </mxCell>
        <mxCell id="lXydgKdb8dQbWVLl66ff-83" value="Actor" style="shape=umlActor;verticalLabelPosition=bottom;verticalAlign=top;html=1;outlineConnect=0;" vertex="1" parent="WIyWlLk6GJQsqaUBKTNV-1">
          <mxGeometry x="585" y="2520" width="30" height="60" as="geometry" />
        </mxCell>
        <mxCell id="lXydgKdb8dQbWVLl66ff-84" value="Actor" style="shape=umlActor;verticalLabelPosition=bottom;verticalAlign=top;html=1;outlineConnect=0;" vertex="1" parent="WIyWlLk6GJQsqaUBKTNV-1">
          <mxGeometry x="225" y="2520" width="30" height="60" as="geometry" />
        </mxCell>
        <mxCell id="lXydgKdb8dQbWVLl66ff-85" value="Actor" style="shape=umlActor;verticalLabelPosition=bottom;verticalAlign=top;html=1;outlineConnect=0;" vertex="1" parent="WIyWlLk6GJQsqaUBKTNV-1">
          <mxGeometry x="585" y="2670" width="30" height="60" as="geometry" />
        </mxCell>
      </root>
    </mxGraphModel>
  </diagram>
</mxfile>
